<svg x="0px" y="0px" viewBox="0 0 297 297" xmlns="http://www.w3.org/2000/svg">
<g>
	<g>
		<g>
			<path d="M243.08,148.5c0-3.906,3.166-7.071,7.071-7.071h7.721c-3.508-54.815-47.486-98.793-102.301-102.301v7.721
				c0,3.906-3.166,7.071-7.071,7.071c-3.905,0-7.071-3.166-7.071-7.071v-7.721C86.614,42.635,42.635,86.614,39.127,141.429h8.605
				c3.906,0,7.071,3.166,7.071,7.071c0,3.905-3.166,7.071-7.071,7.071h-8.605c3.508,54.815,47.486,98.793,102.301,102.301v-8.605
				c0-3.906,3.166-7.071,7.071-7.071c3.905,0,7.071,3.166,7.071,7.071v8.605c54.815-3.508,98.793-47.486,102.301-102.301h-7.721
				C246.246,155.571,243.08,152.406,243.08,148.5z M218.692,88.021l-45.56,75.11l19.261,19.261c2.761,2.762,2.761,7.239,0,10.001
				c-1.381,1.38-3.191,2.071-5.001,2.071c-1.809,0-3.62-0.691-5.001-2.071l-19.261-19.261l-75.114,45.562
				c-1.135,0.689-2.404,1.025-3.665,1.025c-1.828,0-3.638-0.707-5.003-2.071c-2.303-2.304-2.735-5.883-1.046-8.669l45.562-75.113
				l-19.259-19.259c-2.761-2.762-2.761-7.239,0-10.001c2.762-2.76,7.239-2.76,10.001,0l19.26,19.26l75.111-45.56
				c2.782-1.688,6.362-1.258,8.668,1.046C219.949,81.656,220.381,85.235,218.692,88.021z"/>
			<path d="M148.5,0C66.617,0,0,66.617,0,148.5S66.617,297,148.5,297S297,230.383,297,148.5S230.383,0,148.5,0z M148.5,272.25
				c-68.236,0-123.75-55.514-123.75-123.75S80.264,24.75,148.5,24.75S272.25,80.264,272.25,148.5S216.736,272.25,148.5,272.25z"/>
			<circle cx="148.5" cy="148.5" r="16.668"/>
		</g>
	</g>
</g>
</svg>
