<svg viewBox="0 0 297 297" xmlns="http://www.w3.org/2000/svg" fill="currentColor">
<g>
	<rect x="173.858" y="104.626" width="70.41" height="52.432"/>
	<path d="M44.677,262.429h242.256c5.56,0,10.067-4.508,10.067-10.068V44.64c0-5.56-4.508-10.068-10.067-10.068H44.677
		c-5.56,0-10.067,4.508-10.067,10.068V252.36C34.609,257.921,39.117,262.429,44.677,262.429z M157.75,96.572
		c0-4.448,3.606-8.055,8.054-8.055h86.52c4.448,0,8.055,3.606,8.055,8.055v68.54c0,4.447-3.606,8.054-8.055,8.054h-86.52
		c-4.447,0-8.054-3.606-8.054-8.054V96.572z M79.284,88.518h51.913c4.447,0,8.054,3.606,8.054,8.055
		c0,4.448-3.607,8.054-8.054,8.054H79.284c-4.448,0-8.055-3.605-8.055-8.054C71.229,92.124,74.836,88.518,79.284,88.518z
		 M79.284,123.138h51.913c4.447,0,8.054,3.606,8.054,8.055c0,4.447-3.607,8.054-8.054,8.054H79.284
		c-4.448,0-8.055-3.606-8.055-8.054C71.229,126.744,74.836,123.138,79.284,123.138z M79.284,157.754h51.913
		c4.447,0,8.054,3.606,8.054,8.054c0,4.448-3.607,8.055-8.054,8.055H79.284c-4.448,0-8.055-3.606-8.055-8.055
		C71.229,161.36,74.836,157.754,79.284,157.754z M79.284,209.686h173.039c4.448,0,8.055,3.607,8.055,8.054
		c0,4.448-3.606,8.055-8.055,8.055H79.284c-4.448,0-8.055-3.606-8.055-8.055C71.229,213.292,74.836,209.686,79.284,209.686z"/>
	<path d="M18.501,252.36V69.192h-8.434C4.508,69.192,0,73.7,0,79.261v173.1c0,5.561,4.508,10.068,10.067,10.068h10.449
		C19.22,259.327,18.501,255.927,18.501,252.36z"/>
</g>
</svg>
